<mxfile host="app.diagrams.net" modified="2021-06-23T02:48:11.146Z" agent="5.0 (Windows)" etag="ezQMrwq1gwYZerPjINH_" version="14.8.0" type="github">
  <diagram id="udrXkqtJudLNTYpLfkSc" name="Page-1">
    <mxGraphModel dx="1422" dy="752" grid="0" gridSize="10" guides="1" tooltips="1" connect="1" arrows="1" fold="1" page="0" pageScale="1" pageWidth="827" pageHeight="1169" math="0" shadow="0">
      <root>
        <mxCell id="0" />
        <mxCell id="1" parent="0" />
        <mxCell id="bUrjsvbEDcQnGjx75zDc-1" value="&lt;font style=&quot;font-size: 20px&quot;&gt;Client&lt;/font&gt;" style="rounded=0;whiteSpace=wrap;html=1;" vertex="1" parent="1">
          <mxGeometry x="6" y="513" width="120" height="60" as="geometry" />
        </mxCell>
        <mxCell id="bUrjsvbEDcQnGjx75zDc-2" value="&lt;font style=&quot;font-size: 20px&quot;&gt;Gate&lt;/font&gt;" style="rounded=0;whiteSpace=wrap;html=1;" vertex="1" parent="1">
          <mxGeometry x="330" y="370" width="120" height="60" as="geometry" />
        </mxCell>
        <mxCell id="bUrjsvbEDcQnGjx75zDc-3" value="" style="endArrow=none;html=1;exitX=1;exitY=0.5;exitDx=0;exitDy=0;" edge="1" parent="1" source="bUrjsvbEDcQnGjx75zDc-1">
          <mxGeometry width="50" height="50" relative="1" as="geometry">
            <mxPoint x="220" y="540" as="sourcePoint" />
            <mxPoint x="223" y="543" as="targetPoint" />
          </mxGeometry>
        </mxCell>
        <mxCell id="bUrjsvbEDcQnGjx75zDc-4" value="&lt;font style=&quot;font-size: 20px&quot;&gt;ZK&lt;/font&gt;" style="rounded=0;whiteSpace=wrap;html=1;" vertex="1" parent="1">
          <mxGeometry x="538" y="95" width="120" height="60" as="geometry" />
        </mxCell>
        <mxCell id="bUrjsvbEDcQnGjx75zDc-5" value="" style="endArrow=none;dashed=1;html=1;entryX=0;entryY=0.5;entryDx=0;entryDy=0;exitX=0.5;exitY=0;exitDx=0;exitDy=0;" edge="1" parent="1" source="bUrjsvbEDcQnGjx75zDc-1" target="bUrjsvbEDcQnGjx75zDc-4">
          <mxGeometry width="50" height="50" relative="1" as="geometry">
            <mxPoint x="190" y="320" as="sourcePoint" />
            <mxPoint x="240" y="270" as="targetPoint" />
            <Array as="points">
              <mxPoint x="71" y="125" />
            </Array>
          </mxGeometry>
        </mxCell>
        <mxCell id="bUrjsvbEDcQnGjx75zDc-6" value="&lt;font style=&quot;font-size: 20px&quot;&gt;Gate&lt;/font&gt;" style="rounded=0;whiteSpace=wrap;html=1;" vertex="1" parent="1">
          <mxGeometry x="330" y="520" width="120" height="60" as="geometry" />
        </mxCell>
        <mxCell id="bUrjsvbEDcQnGjx75zDc-8" value="&lt;font style=&quot;font-size: 20px&quot;&gt;Gate&lt;/font&gt;" style="rounded=0;whiteSpace=wrap;html=1;" vertex="1" parent="1">
          <mxGeometry x="330" y="670" width="120" height="60" as="geometry" />
        </mxCell>
        <mxCell id="bUrjsvbEDcQnGjx75zDc-12" value="&lt;font style=&quot;font-size: 20px&quot;&gt;World&lt;/font&gt;" style="rounded=0;whiteSpace=wrap;html=1;" vertex="1" parent="1">
          <mxGeometry x="740" y="370" width="120" height="60" as="geometry" />
        </mxCell>
        <mxCell id="bUrjsvbEDcQnGjx75zDc-13" value="&lt;font style=&quot;font-size: 20px&quot;&gt;World&lt;/font&gt;" style="rounded=0;whiteSpace=wrap;html=1;" vertex="1" parent="1">
          <mxGeometry x="740" y="520" width="120" height="60" as="geometry" />
        </mxCell>
        <mxCell id="bUrjsvbEDcQnGjx75zDc-14" value="&lt;font style=&quot;font-size: 20px&quot;&gt;World&lt;/font&gt;" style="rounded=0;whiteSpace=wrap;html=1;" vertex="1" parent="1">
          <mxGeometry x="740" y="670" width="120" height="60" as="geometry" />
        </mxCell>
        <mxCell id="bUrjsvbEDcQnGjx75zDc-15" value="" style="endArrow=none;html=1;entryX=0;entryY=0.5;entryDx=0;entryDy=0;exitX=1;exitY=0.5;exitDx=0;exitDy=0;" edge="1" parent="1" source="bUrjsvbEDcQnGjx75zDc-2" target="bUrjsvbEDcQnGjx75zDc-12">
          <mxGeometry width="50" height="50" relative="1" as="geometry">
            <mxPoint x="580" y="420" as="sourcePoint" />
            <mxPoint x="630" y="370" as="targetPoint" />
          </mxGeometry>
        </mxCell>
        <mxCell id="bUrjsvbEDcQnGjx75zDc-16" value="" style="endArrow=none;html=1;exitX=1;exitY=0.5;exitDx=0;exitDy=0;entryX=0;entryY=0.5;entryDx=0;entryDy=0;" edge="1" parent="1" source="bUrjsvbEDcQnGjx75zDc-6" target="bUrjsvbEDcQnGjx75zDc-13">
          <mxGeometry width="50" height="50" relative="1" as="geometry">
            <mxPoint x="730" y="530" as="sourcePoint" />
            <mxPoint x="780" y="480" as="targetPoint" />
          </mxGeometry>
        </mxCell>
        <mxCell id="bUrjsvbEDcQnGjx75zDc-17" value="" style="endArrow=none;html=1;exitX=1;exitY=0.5;exitDx=0;exitDy=0;entryX=0;entryY=0.5;entryDx=0;entryDy=0;" edge="1" parent="1" source="bUrjsvbEDcQnGjx75zDc-8" target="bUrjsvbEDcQnGjx75zDc-14">
          <mxGeometry width="50" height="50" relative="1" as="geometry">
            <mxPoint x="730" y="530" as="sourcePoint" />
            <mxPoint x="780" y="480" as="targetPoint" />
          </mxGeometry>
        </mxCell>
        <mxCell id="bUrjsvbEDcQnGjx75zDc-24" value="&lt;font style=&quot;font-size: 20px&quot;&gt;HOME&lt;/font&gt;" style="rounded=0;whiteSpace=wrap;html=1;" vertex="1" parent="1">
          <mxGeometry x="540" y="260" width="120" height="60" as="geometry" />
        </mxCell>
        <mxCell id="bUrjsvbEDcQnGjx75zDc-25" value="" style="endArrow=none;html=1;entryX=0.5;entryY=1;entryDx=0;entryDy=0;exitX=1;exitY=0.5;exitDx=0;exitDy=0;" edge="1" parent="1" source="bUrjsvbEDcQnGjx75zDc-2" target="bUrjsvbEDcQnGjx75zDc-24">
          <mxGeometry width="50" height="50" relative="1" as="geometry">
            <mxPoint x="470" y="350" as="sourcePoint" />
            <mxPoint x="520" y="300" as="targetPoint" />
          </mxGeometry>
        </mxCell>
        <mxCell id="bUrjsvbEDcQnGjx75zDc-26" value="" style="endArrow=none;dashed=1;html=1;entryX=0.5;entryY=1;entryDx=0;entryDy=0;exitX=0.5;exitY=0;exitDx=0;exitDy=0;" edge="1" parent="1" source="bUrjsvbEDcQnGjx75zDc-2" target="bUrjsvbEDcQnGjx75zDc-4">
          <mxGeometry width="50" height="50" relative="1" as="geometry">
            <mxPoint x="660" y="490" as="sourcePoint" />
            <mxPoint x="710" y="440" as="targetPoint" />
          </mxGeometry>
        </mxCell>
        <mxCell id="bUrjsvbEDcQnGjx75zDc-27" value="" style="endArrow=none;dashed=1;html=1;exitX=0;exitY=0.5;exitDx=0;exitDy=0;entryX=0;entryY=0.5;entryDx=0;entryDy=0;" edge="1" parent="1" source="bUrjsvbEDcQnGjx75zDc-6" target="bUrjsvbEDcQnGjx75zDc-4">
          <mxGeometry width="50" height="50" relative="1" as="geometry">
            <mxPoint x="660" y="490" as="sourcePoint" />
            <mxPoint x="390" y="250" as="targetPoint" />
            <Array as="points">
              <mxPoint x="288" y="388" />
            </Array>
          </mxGeometry>
        </mxCell>
        <mxCell id="bUrjsvbEDcQnGjx75zDc-28" value="" style="endArrow=none;dashed=1;html=1;exitX=0;exitY=0.5;exitDx=0;exitDy=0;entryX=0;entryY=0.5;entryDx=0;entryDy=0;" edge="1" parent="1" source="bUrjsvbEDcQnGjx75zDc-8" target="bUrjsvbEDcQnGjx75zDc-4">
          <mxGeometry width="50" height="50" relative="1" as="geometry">
            <mxPoint x="660" y="490" as="sourcePoint" />
            <mxPoint x="390" y="250" as="targetPoint" />
            <Array as="points">
              <mxPoint x="233" y="372" />
            </Array>
          </mxGeometry>
        </mxCell>
        <mxCell id="bUrjsvbEDcQnGjx75zDc-29" value="" style="endArrow=none;html=1;entryX=0.5;entryY=1;entryDx=0;entryDy=0;exitX=1;exitY=0.5;exitDx=0;exitDy=0;" edge="1" parent="1" source="bUrjsvbEDcQnGjx75zDc-6" target="bUrjsvbEDcQnGjx75zDc-24">
          <mxGeometry width="50" height="50" relative="1" as="geometry">
            <mxPoint x="660" y="490" as="sourcePoint" />
            <mxPoint x="710" y="440" as="targetPoint" />
          </mxGeometry>
        </mxCell>
        <mxCell id="bUrjsvbEDcQnGjx75zDc-30" value="" style="endArrow=none;html=1;entryX=0.5;entryY=1;entryDx=0;entryDy=0;" edge="1" parent="1" target="bUrjsvbEDcQnGjx75zDc-24">
          <mxGeometry width="50" height="50" relative="1" as="geometry">
            <mxPoint x="450" y="700" as="sourcePoint" />
            <mxPoint x="710" y="440" as="targetPoint" />
          </mxGeometry>
        </mxCell>
        <mxCell id="bUrjsvbEDcQnGjx75zDc-31" value="" style="endArrow=none;html=1;entryX=0.5;entryY=1;entryDx=0;entryDy=0;exitX=0;exitY=0.5;exitDx=0;exitDy=0;" edge="1" parent="1" source="bUrjsvbEDcQnGjx75zDc-12" target="bUrjsvbEDcQnGjx75zDc-24">
          <mxGeometry width="50" height="50" relative="1" as="geometry">
            <mxPoint x="660" y="490" as="sourcePoint" />
            <mxPoint x="710" y="440" as="targetPoint" />
          </mxGeometry>
        </mxCell>
        <mxCell id="bUrjsvbEDcQnGjx75zDc-32" value="" style="endArrow=none;html=1;entryX=0.5;entryY=1;entryDx=0;entryDy=0;exitX=0;exitY=0.5;exitDx=0;exitDy=0;" edge="1" parent="1" source="bUrjsvbEDcQnGjx75zDc-13" target="bUrjsvbEDcQnGjx75zDc-24">
          <mxGeometry width="50" height="50" relative="1" as="geometry">
            <mxPoint x="660" y="490" as="sourcePoint" />
            <mxPoint x="710" y="440" as="targetPoint" />
          </mxGeometry>
        </mxCell>
        <mxCell id="bUrjsvbEDcQnGjx75zDc-33" value="" style="endArrow=none;html=1;entryX=0.5;entryY=1;entryDx=0;entryDy=0;exitX=0;exitY=0.5;exitDx=0;exitDy=0;" edge="1" parent="1" source="bUrjsvbEDcQnGjx75zDc-14" target="bUrjsvbEDcQnGjx75zDc-24">
          <mxGeometry width="50" height="50" relative="1" as="geometry">
            <mxPoint x="660" y="490" as="sourcePoint" />
            <mxPoint x="710" y="440" as="targetPoint" />
          </mxGeometry>
        </mxCell>
        <mxCell id="bUrjsvbEDcQnGjx75zDc-34" value="" style="endArrow=none;dashed=1;html=1;dashPattern=1 3;strokeWidth=2;" edge="1" parent="1">
          <mxGeometry width="50" height="50" relative="1" as="geometry">
            <mxPoint x="780" y="650" as="sourcePoint" />
            <mxPoint x="780" y="590" as="targetPoint" />
          </mxGeometry>
        </mxCell>
        <mxCell id="bUrjsvbEDcQnGjx75zDc-35" value="" style="endArrow=none;dashed=1;html=1;dashPattern=1 3;strokeWidth=2;" edge="1" parent="1">
          <mxGeometry width="50" height="50" relative="1" as="geometry">
            <mxPoint x="414" y="650" as="sourcePoint" />
            <mxPoint x="414" y="590" as="targetPoint" />
          </mxGeometry>
        </mxCell>
        <mxCell id="bUrjsvbEDcQnGjx75zDc-36" value="" style="endArrow=none;dashed=1;html=1;entryX=0.5;entryY=1;entryDx=0;entryDy=0;exitX=0.5;exitY=0;exitDx=0;exitDy=0;" edge="1" parent="1" source="bUrjsvbEDcQnGjx75zDc-24" target="bUrjsvbEDcQnGjx75zDc-4">
          <mxGeometry width="50" height="50" relative="1" as="geometry">
            <mxPoint x="603" y="498" as="sourcePoint" />
            <mxPoint x="653" y="448" as="targetPoint" />
          </mxGeometry>
        </mxCell>
        <mxCell id="bUrjsvbEDcQnGjx75zDc-37" value="" style="endArrow=none;dashed=1;html=1;entryX=1;entryY=0.5;entryDx=0;entryDy=0;exitX=0.5;exitY=0;exitDx=0;exitDy=0;" edge="1" parent="1" source="bUrjsvbEDcQnGjx75zDc-12" target="bUrjsvbEDcQnGjx75zDc-4">
          <mxGeometry width="50" height="50" relative="1" as="geometry">
            <mxPoint x="603" y="498" as="sourcePoint" />
            <mxPoint x="653" y="448" as="targetPoint" />
            <Array as="points" />
          </mxGeometry>
        </mxCell>
        <mxCell id="bUrjsvbEDcQnGjx75zDc-40" value="" style="rounded=0;whiteSpace=wrap;html=1;" vertex="1" parent="1">
          <mxGeometry x="222" y="543" width="120" height="60" as="geometry" />
        </mxCell>
        <mxCell id="bUrjsvbEDcQnGjx75zDc-38" value="" style="endArrow=none;dashed=1;html=1;entryX=1;entryY=0.5;entryDx=0;entryDy=0;exitX=1;exitY=0.5;exitDx=0;exitDy=0;" edge="1" parent="1" source="bUrjsvbEDcQnGjx75zDc-13" target="bUrjsvbEDcQnGjx75zDc-4">
          <mxGeometry width="50" height="50" relative="1" as="geometry">
            <mxPoint x="668" y="457" as="sourcePoint" />
            <mxPoint x="718" y="407" as="targetPoint" />
            <Array as="points">
              <mxPoint x="903" y="386" />
            </Array>
          </mxGeometry>
        </mxCell>
        <mxCell id="bUrjsvbEDcQnGjx75zDc-39" value="" style="endArrow=none;dashed=1;html=1;entryX=1;entryY=0.5;entryDx=0;entryDy=0;exitX=1;exitY=0.5;exitDx=0;exitDy=0;" edge="1" parent="1" source="bUrjsvbEDcQnGjx75zDc-14" target="bUrjsvbEDcQnGjx75zDc-4">
          <mxGeometry width="50" height="50" relative="1" as="geometry">
            <mxPoint x="668" y="457" as="sourcePoint" />
            <mxPoint x="718" y="407" as="targetPoint" />
            <Array as="points">
              <mxPoint x="956" y="380" />
            </Array>
          </mxGeometry>
        </mxCell>
      </root>
    </mxGraphModel>
  </diagram>
</mxfile>
